<svg width="94" height="88" viewBox="0 0 94 88" fill="none" xmlns="http://www.w3.org/2000/svg">
<path d="M11.0725 13.4322C5.40362 12.7441 5.78097 10.7805 5.78097 9.78957C5.78097 8.79863 7.62 5 24.6051 5C44.9646 5 88.1907 21.7222 88.1907 51.0698C88.1907 80.4174 50.4123 73.6919 42.9304 71.8063C35.4528 69.9162 18.793 61.4564 18.793 52.6572C18.793 46.2573 32.1521 41.7017 47.9184 41.7017C63.6803 41.7017 70.8413 46.4775 70.8413 50.8771C70.8413 53.171 70.5203 56.5154 66.5039 57.7587" stroke="white" stroke-width="10" stroke-linecap="round" stroke-linejoin="round"/>
<path d="M40.5666 23.3516C40.3248 43.2308 40.3248 63.1126 40.5666 82.9919" stroke="white" stroke-width="10" stroke-linecap="round" stroke-linejoin="round"/>
</svg>
