<svg width="87" height="87" viewBox="0 0 87 87" fill="none" xmlns="http://www.w3.org/2000/svg">
<path d="M58.0001 7.25195C47.9951 7.25195 39.8751 15.372 39.8751 25.377C39.8751 35.382 47.9951 43.502 58.0001 43.502C68.0051 43.502 76.1251 35.382 76.1251 25.377C76.1251 15.372 68.0051 7.25195 58.0001 7.25195ZM58.0001 36.252C51.9826 36.252 47.1251 31.3945 47.1251 25.377C47.1251 19.3595 51.9826 14.502 58.0001 14.502C64.0176 14.502 68.8751 19.3595 68.8751 25.377C68.8751 31.3945 64.0176 36.252 58.0001 36.252ZM68.8751 58.002H61.6251C61.6251 53.652 58.9063 49.737 54.8463 48.2145L32.5163 39.877H3.62506V79.752H25.3751V74.532L50.7501 81.5645L79.7501 72.502V68.877C79.7501 62.8595 74.8926 58.002 68.8751 58.002ZM18.1251 72.502H10.8751V47.127H18.1251V72.502ZM50.6413 73.9882L25.3751 67.0645V47.127H31.2113L52.3088 54.9932C53.5413 55.4645 54.3751 56.6607 54.3751 58.002C54.3751 58.002 47.1251 57.8207 46.0376 57.4582L37.4101 54.5945L35.1263 61.482L43.7538 64.3457C45.6026 64.962 47.5238 65.252 49.4813 65.252H68.8751C70.2888 65.252 71.5576 66.122 72.1376 67.3182L50.6413 73.9882Z" fill="white"/>
</svg>
