<svg width="82" height="78" viewBox="0 0 82 78" fill="none" xmlns="http://www.w3.org/2000/svg">
<g clip-path="url(#clip0_110_13)">
<path d="M56.6484 33.273C54.858 33.273 53.2317 33.923 48.2263 37.342V55.737C56.9046 46.4583 59.3783 40.111 59.3783 36.8545C59.368 34.573 58.2679 33.273 56.6484 33.273ZM57.3317 21.066C57.3317 17.7998 53.4162 15.1185 48.2263 14.7968V31.8073C54.7726 28.1445 57.3283 24.472 57.3283 21.0628L57.3317 21.066ZM72.7409 13.8445C72.6554 13.5195 72.57 13.3993 72.3992 13.357L66.2594 11.81L65.4087 8.47225C65.3677 8.30975 65.3233 8.18625 65.1559 8.14725L58.8555 6.52225L58.0902 3.34375C58.0852 3.25051 58.0495 3.16112 57.9882 3.08822C57.9269 3.01532 57.8431 2.9626 57.7485 2.9375L41.3929 0.0320017C41.1254 -0.0158756 40.8508 -0.0158756 40.5832 0.0320017L24.2242 2.9375C24.1297 2.9626 24.0458 3.01532 23.9845 3.08822C23.9232 3.16112 23.8875 3.25051 23.8825 3.34375L23.1172 6.52225L16.8203 8.14725C16.6494 8.18625 16.6084 8.30975 16.564 8.47225L15.7133 11.8068L9.59402 13.357C9.42319 13.3993 9.33777 13.5195 9.25235 13.8445C8.73617 16.4482 8.47992 19.0924 8.48702 21.742C8.48702 45.1908 21.2551 65.5423 40.3201 77.6745C40.3997 77.7754 40.5028 77.8573 40.6214 77.9137C40.7401 77.9701 40.8708 77.9995 41.0034 77.9995C41.136 77.9995 41.2668 77.9701 41.3854 77.9137C41.504 77.8573 41.6072 77.7754 41.6868 77.6745C60.7518 65.5423 73.5199 45.1908 73.5199 21.742C73.5213 19.0921 73.2605 16.4479 72.7409 13.8445ZM38.5981 66.8877C38.5981 67.0503 38.4273 67.1315 38.2599 66.969C33.579 61.8438 30.4289 55.5745 28.3037 48.7365L25.0681 50.6963C24.2139 51.2683 23.5374 51.0213 23.0181 50.1275C18.6789 42.802 15.8739 30.7543 15.6142 22.2945C15.6084 22.1003 15.6432 21.907 15.7165 21.7257C15.7898 21.5444 15.9002 21.3787 16.0413 21.2383C17.1998 19.9118 18.4509 18.661 19.7859 17.4943C20.0422 17.2505 20.2984 17.4097 20.2984 17.8193C20.2984 28.2355 22.1674 37.9205 25.1501 44.2743C25.4029 44.7618 25.6592 44.7618 26.0009 44.5148L26.9336 43.946C25.1467 36.3735 24.1251 26.2823 24.3814 14.644C24.3814 14.2378 24.4668 14.072 24.723 13.9128C26.0267 13.1343 27.3917 12.453 28.8059 11.875C29.2296 11.7125 29.3184 11.797 29.3184 12.1188C29.0793 29.0513 30.5279 40.7643 33.6713 50.1243C33.7567 50.368 34.0129 50.2868 34.0129 50.043C33.8421 46.624 33.8421 43.6145 33.8421 39.9485L33.6713 10.731C33.6713 10.406 33.7567 10.2435 34.0984 10.1623C35.4984 9.8314 36.9192 9.58607 38.3521 9.42775C38.3863 9.4237 38.421 9.42716 38.4536 9.43786C38.4862 9.44857 38.5157 9.46623 38.54 9.4895C38.5654 9.51279 38.5847 9.54133 38.5966 9.5729C38.6084 9.60446 38.6125 9.63821 38.6084 9.6715L38.5981 66.8877ZM43.706 66.969C43.5352 67.1315 43.3644 67.0503 43.3644 66.8877V9.6715C43.3603 9.63821 43.3643 9.60446 43.3761 9.5729C43.388 9.54133 43.4073 9.51279 43.4327 9.4895C43.4566 9.46565 43.4861 9.44738 43.5187 9.43611C43.5513 9.42483 43.5861 9.42086 43.6206 9.4245C55.022 10.159 62.3439 14.7188 62.3439 21.3098C62.3441 24.0425 61.2831 26.6791 59.3646 28.7133C63.1059 29.6883 64.5545 32.376 64.5545 35.9575C64.5614 42.308 59.7097 52.8088 43.7129 66.969H43.706Z" fill="white"/>
</g>
<defs>
<clipPath id="clip0_110_13">
<rect width="82" height="78" fill="white"/>
</clipPath>
</defs>
</svg>
