<svg width="50" height="45" viewBox="0 0 50 45" fill="none" xmlns="http://www.w3.org/2000/svg">
<path d="M16.25 3.75H33.75C40.4167 3.75 45.8334 8.625 45.8334 14.625V30.375C45.8334 33.2592 44.5603 36.0253 42.2942 38.0648C40.0282 40.1043 36.9547 41.25 33.75 41.25H16.25C9.58335 41.25 4.16669 36.375 4.16669 30.375V14.625C4.16669 11.7408 5.43975 8.97467 7.70581 6.93521C9.97188 4.89576 13.0453 3.75 16.25 3.75ZM15.8334 7.5C13.8442 7.5 11.9366 8.21116 10.5301 9.47703C9.12353 10.7429 8.33335 12.4598 8.33335 14.25V30.75C8.33335 34.4813 11.6875 37.5 15.8334 37.5H34.1667C36.1558 37.5 38.0635 36.7888 39.47 35.523C40.8765 34.2571 41.6667 32.5402 41.6667 30.75V14.25C41.6667 10.5188 38.3125 7.5 34.1667 7.5H15.8334ZM35.9375 10.3125C36.6282 10.3125 37.2906 10.5594 37.7789 10.999C38.2673 11.4385 38.5417 12.0347 38.5417 12.6563C38.5417 13.2779 38.2673 13.874 37.7789 14.3135C37.2906 14.7531 36.6282 15 35.9375 15C35.2469 15 34.5845 14.7531 34.0961 14.3135C33.6077 13.874 33.3334 13.2779 33.3334 12.6563C33.3334 12.0347 33.6077 11.4385 34.0961 10.999C34.5845 10.5594 35.2469 10.3125 35.9375 10.3125ZM25 13.125C27.7627 13.125 30.4122 14.1127 32.3657 15.8709C34.3192 17.629 35.4167 20.0136 35.4167 22.5C35.4167 24.9864 34.3192 27.371 32.3657 29.1291C30.4122 30.8873 27.7627 31.875 25 31.875C22.2374 31.875 19.5878 30.8873 17.6343 29.1291C15.6808 27.371 14.5834 24.9864 14.5834 22.5C14.5834 20.0136 15.6808 17.629 17.6343 15.8709C19.5878 14.1127 22.2374 13.125 25 13.125ZM25 16.875C23.3424 16.875 21.7527 17.4676 20.5806 18.5225C19.4085 19.5774 18.75 21.0082 18.75 22.5C18.75 23.9918 19.4085 25.4226 20.5806 26.4775C21.7527 27.5324 23.3424 28.125 25 28.125C26.6576 28.125 28.2473 27.5324 29.4194 26.4775C30.5915 25.4226 31.25 23.9918 31.25 22.5C31.25 21.0082 30.5915 19.5774 29.4194 18.5225C28.2473 17.4676 26.6576 16.875 25 16.875Z" fill="white"/>
</svg>
