<svg width="82" height="78" viewBox="0 0 82 78" fill="none" xmlns="http://www.w3.org/2000/svg">
<path d="M38.581 12.3955L45.4758 30.9433L46.8288 34.5703L46.8528 18.9378L46.8869 3.27925H61.4761L61.5 38.5808C61.5103 58.0158 61.4898 73.9733 61.4488 74.0058C61.4078 74.035 60.7347 74.0058 59.9591 73.918C56.1674 73.4881 52.3612 73.1824 48.5474 73.0015C47.8222 72.9754 47.0977 72.9342 46.3744 72.878C46.3642 72.8683 45.4417 70.4015 43.7231 65.78V65.767L36.3978 46.0688L35.2361 42.9683L35.2088 57.8728C35.1883 72.059 35.1746 72.8553 35.014 72.8553C34.4571 72.8553 29.6498 73.1478 28.044 73.2973C26.9917 73.385 24.8802 73.5898 23.3632 73.7685C21.8393 73.9343 20.5752 74.0448 20.5512 74.022C20.5239 74.0025 20.5 58.0678 20.5 38.6198V3.2565H20.5171V3.25H35.1678L35.2634 3.51C35.2873 3.562 35.4855 4.082 35.7998 4.93025L37.9899 10.7088L38.581 12.3208V12.3955Z" fill="white"/>
</svg>
