<svg width="82" height="78" viewBox="0 0 82 78" fill="none" xmlns="http://www.w3.org/2000/svg">
<path d="M18.5183 63.4628C24.7355 68.6529 32.728 71.5102 40.9999 71.5C49.2772 71.5109 57.2752 68.6537 63.4987 63.4628C68.8424 58.2855 51.2089 39.8775 40.9999 32.5422C30.8012 39.8775 13.1541 58.2855 18.5114 63.4628H18.5183ZM50.2933 24.4465C57.4102 32.4675 71.5996 52.3802 67.5919 59.4165C72.5052 53.6434 75.18 46.4375 75.1666 39.0098C75.1728 34.7072 74.2771 30.4467 72.5318 26.4774C70.7865 22.5081 68.2267 18.9096 65.002 15.8925C65.002 15.8925 64.9234 15.834 64.7697 15.7788C64.5128 15.6938 64.2422 15.652 63.9702 15.6552C62.2824 15.6552 58.3156 16.8317 50.2864 24.4465H50.2933ZM17.237 15.782C17.073 15.8372 17.0047 15.8925 16.991 15.8957C13.7684 18.914 11.2103 22.5128 9.46625 26.4819C7.72219 30.4511 6.82711 34.7111 6.83328 39.013C6.83328 46.7447 9.67595 53.8363 14.408 59.4165C10.4242 52.3575 24.6034 32.461 31.7237 24.4497C23.6945 16.8285 19.721 15.6585 18.0399 15.6585C17.7673 15.6501 17.4955 15.6931 17.2404 15.7852V15.7788L17.237 15.782ZM40.9999 16.12C40.9999 16.12 32.6154 11.453 26.0691 11.232C23.4964 11.1443 21.9247 12.0315 21.7368 12.1485C27.8458 8.2485 34.3374 6.5 40.9589 6.5H40.9999C47.6454 6.5 54.1131 8.2485 60.2631 12.1452C60.0718 12.0217 58.5138 11.1377 55.9376 11.2287C49.3879 11.4497 40.9999 16.1038 40.9999 16.1038V16.12Z" fill="white"/>
</svg>
